<svg width="34" height="34" viewBox="0 0 34 34" fill="none" xmlns="http://www.w3.org/2000/svg">
<g clip-path="url(#clip0_389_2192)">
<path d="M15.2186 15.9909C15.5312 15.7218 15.9748 15.5473 16.5565 15.5037V18.8411C15.8439 18.6157 15.3567 18.354 15.0877 18.1285C14.8186 17.8595 14.6878 17.5468 14.6878 17.1033C14.7314 16.6598 14.9059 16.3035 15.2186 15.9909ZM28.2558 5.26589C27.6741 3.12816 25.9872 2.32833 24.0312 2.8664L6.76219 7.49086H28.8375L28.2558 5.26589ZM34 13.0097V27.872C34 29.7843 32.4876 31.2968 30.5753 31.2968H3.42472C1.5124 31.2968 0 29.7843 0 27.872V13.0097C0 11.0974 1.5124 9.58496 3.42472 9.58496H30.568C32.444 9.58489 34 11.141 34 13.0097ZM22.1625 23.1529C22.1625 22.0403 21.8063 21.197 21.0937 20.5716C20.3811 19.9462 19.3122 19.5028 17.8435 19.1901H17.7998V15.5835C18.7814 15.7144 19.7121 16.1143 20.5556 16.696L21.799 14.9146C20.5556 14.0711 19.2177 13.5767 17.7926 13.4894V12.5078H16.5492V13.4458C15.3058 13.4894 14.3242 13.8893 13.5244 14.6019C12.7682 15.3145 12.3683 16.2016 12.3683 17.3141C12.3683 18.4266 12.7246 19.27 13.3935 19.8081C14.0624 20.3898 15.1313 20.8335 16.5565 21.1896V24.927C15.4003 24.7525 14.3315 24.1708 13.219 23.2328L11.7938 24.927C13.1754 26.1267 14.775 26.8393 16.5128 27.0211V28.4464H17.7562V27.0649C19.0431 27.0211 20.1119 26.6212 20.9192 25.9087C21.7626 25.1598 22.1625 24.2655 22.1625 23.1529ZM17.7998 21.5096V24.978C18.4252 24.9343 18.9123 24.7525 19.2686 24.4472C19.6248 24.1344 19.7994 23.7782 19.7994 23.3346C19.7994 22.891 19.6685 22.5348 19.3995 22.2658C19.0941 21.9969 18.5997 21.735 17.7998 21.5096Z" fill="white"/>
</g>
<defs>
<clipPath id="clip0_389_2192">
<rect width="34" height="34" fill="white"/>
</clipPath>
</defs>
</svg>
