<svg width="89" height="89" viewBox="0 0 89 89" fill="none" xmlns="http://www.w3.org/2000/svg">
<path d="M44.5 89C69.0767 89 89 69.0767 89 44.5C89 19.9233 69.0767 0 44.5 0C19.9233 0 0 19.9233 0 44.5C0 69.0767 19.9233 89 44.5 89Z" fill="#1A1A1A"/>
<g clip-path="url(#clip0_389_1583)">
<path d="M43.4775 26.3625H34.1588C32.8722 26.3625 31.8291 25.3194 31.8291 24.0328C31.8291 22.7462 32.8722 21.7031 34.1588 21.7031H43.4775C44.7642 21.7031 45.8072 22.7462 45.8072 24.0328C45.8072 25.3194 44.7643 26.3625 43.4775 26.3625Z" stroke="white" stroke-width="1.40625" stroke-miterlimit="10" stroke-linecap="round" stroke-linejoin="round"/>
<path d="M34.1587 35.6951V38.0888C34.1587 38.5488 34.0566 39.0029 33.8597 39.4186L22.2818 63.8607C21.3056 65.9215 22.8087 68.2967 25.0891 68.2967H52.547C54.8274 68.2967 56.3305 65.9215 55.3543 63.8607L43.7764 39.4186C43.5796 39.0029 43.4775 38.5488 43.4775 38.0888V26.3623H34.1587V32.4139" stroke="white" stroke-width="1.40625" stroke-miterlimit="10" stroke-linecap="round" stroke-linejoin="round"/>
<path d="M32.9715 48.5505L26.1399 62.9728C25.6518 64.0032 26.4033 65.1908 27.5435 65.1908H50.093C51.2332 65.1908 51.9847 64.0032 51.4967 62.9728L44.665 48.5505C44.5366 48.2793 44.2633 48.1064 43.9632 48.1064H33.6733C33.3732 48.1064 33.0999 48.2793 32.9715 48.5505Z" stroke="white" stroke-width="1.40625" stroke-miterlimit="10" stroke-linecap="round" stroke-linejoin="round"/>
<path d="M35.7116 55.8719C36.5694 55.8719 37.2648 55.1766 37.2648 54.3188C37.2648 53.461 36.5694 52.7656 35.7116 52.7656C34.8538 52.7656 34.1584 53.461 34.1584 54.3188C34.1584 55.1766 34.8538 55.8719 35.7116 55.8719Z" stroke="white" stroke-width="1.40625" stroke-miterlimit="10" stroke-linecap="round" stroke-linejoin="round"/>
<path d="M43.4775 60.5316C44.3353 60.5316 45.0306 59.8362 45.0306 58.9785C45.0306 58.1207 44.3353 57.4253 43.4775 57.4253C42.6197 57.4253 41.9243 58.1207 41.9243 58.9785C41.9243 59.8362 42.6197 60.5316 43.4775 60.5316Z" stroke="white" stroke-width="1.40625" stroke-miterlimit="10" stroke-linecap="round" stroke-linejoin="round"/>
<path d="M54.6011 34.128C56.3166 34.128 57.7073 32.7373 57.7073 31.0217C57.7073 29.3062 56.3166 27.9155 54.6011 27.9155C52.8856 27.9155 51.4949 29.3062 51.4949 31.0217C51.4949 32.7373 52.8856 34.128 54.6011 34.128Z" stroke="white" stroke-width="1.40625" stroke-miterlimit="10" stroke-linecap="round" stroke-linejoin="round"/>
<path d="M56.1141 23.6149C56.3112 22.7801 55.7943 21.9436 54.9595 21.7464C54.1247 21.5493 53.2882 22.0663 53.091 22.9011C52.8939 23.7359 53.4109 24.5724 54.2457 24.7695C55.0805 24.9666 55.917 24.4497 56.1141 23.6149Z" stroke="white" stroke-width="1.40625" stroke-miterlimit="10" stroke-linecap="round" stroke-linejoin="round"/>
<path d="M54.6011 24.8096V27.9159" stroke="white" stroke-width="1.40625" stroke-miterlimit="10" stroke-linecap="round" stroke-linejoin="round"/>
<path d="M48.5742 36.2725C49.3407 35.8873 49.6498 34.9538 49.2646 34.1873C48.8795 33.4209 47.9459 33.1118 47.1795 33.497C46.4131 33.8821 46.104 34.8157 46.4891 35.5821C46.8743 36.3485 47.8078 36.6576 48.5742 36.2725Z" stroke="white" stroke-width="1.40625" stroke-miterlimit="10" stroke-linecap="round" stroke-linejoin="round"/>
<path d="M49.2236 34.1097L51.9138 32.5566" stroke="white" stroke-width="1.40625" stroke-miterlimit="10" stroke-linecap="round" stroke-linejoin="round"/>
<path d="M60.5347 36.2384C59.7918 35.8094 59.5373 34.8596 59.9662 34.1167C60.3951 33.3738 61.3449 33.1193 62.0877 33.5482C62.8305 33.9771 63.0851 34.927 62.6562 35.6698C62.2274 36.4127 61.2775 36.6673 60.5347 36.2384Z" stroke="white" stroke-width="1.40625" stroke-miterlimit="10" stroke-linecap="round" stroke-linejoin="round"/>
<path d="M59.9662 34.1171L57.2761 32.564" stroke="white" stroke-width="1.40625" stroke-miterlimit="10" stroke-linecap="round" stroke-linejoin="round"/>
<path d="M52.2645 68.2971H60.8067C62.5222 68.2971 63.9129 66.9064 63.9129 65.1909V47.5887C63.9129 46.9166 64.1309 46.2626 64.5342 45.725L66.7085 42.8259C67.4764 41.802 66.7458 40.3408 65.4661 40.3408H44.2126" stroke="white" stroke-width="1.40625" stroke-miterlimit="10" stroke-linecap="round" stroke-linejoin="round"/>
<path d="M51.6473 51.2129H49.3625" stroke="white" stroke-width="1.40625" stroke-miterlimit="10" stroke-linecap="round" stroke-linejoin="round"/>
<path d="M55.6569 65.191H59.2538C60.1116 65.191 60.807 64.4957 60.807 63.6379V51.9894C60.807 51.5605 60.4593 51.2129 60.0305 51.2129H54.929" stroke="white" stroke-width="1.40625" stroke-miterlimit="10" stroke-linecap="round" stroke-linejoin="round"/>
</g>
<defs>
<clipPath id="clip0_389_1583">
<rect width="48" height="48" fill="white" transform="translate(20.5 21)"/>
</clipPath>
</defs>
</svg>
