<svg width="89" height="89" viewBox="0 0 89 89" fill="none" xmlns="http://www.w3.org/2000/svg">
<path d="M44.5 89C69.0767 89 89 69.0767 89 44.5C89 19.9233 69.0767 0 44.5 0C19.9233 0 0 19.9233 0 44.5C0 69.0767 19.9233 89 44.5 89Z" fill="#1A1A1A"/>
<mask id="mask0_389_1567" style="mask-type:luminance" maskUnits="userSpaceOnUse" x="21" y="21" width="48" height="48">
<path d="M69 21H21V69H69V21Z" fill="white"/>
</mask>
<g mask="url(#mask0_389_1567)">
<path d="M43.4283 29.1318C43.4283 29.1318 41.9263 41.5708 41.9263 46.4038C41.9436 48.1848 42.6632 49.8871 43.9288 51.1404C45.1944 52.3937 46.9035 53.0968 48.6846 53.0968C50.4658 53.0968 52.1749 52.3937 53.4405 51.1404C54.706 49.8871 55.4257 48.1848 55.443 46.4038C55.443 41.5708 48.6843 37.5789 48.6843 29.1318" stroke="white" stroke-width="1.27619" stroke-linecap="round" stroke-linejoin="round"/>
<path d="M63.7039 32.4209V34.4092C63.7039 35.8845 65.1402 36.6425 66.6065 36.6425H68.2094" stroke="white" stroke-width="1.27619" stroke-linecap="round" stroke-linejoin="round"/>
<path d="M58.4498 44.9017H59.9518C65.5167 44.7874 68.212 39.6233 68.212 36.9542C68.212 34.2953 68.212 32.1353 61.4533 32.1353H59.9512C59.9487 26.8091 55.6651 21.6221 48.6952 21.6221C41.7253 21.6221 38.9241 27.6297 38.1711 32.8863L38.0703 33.5927" stroke="white" stroke-width="1.27619" stroke-linecap="round" stroke-linejoin="round"/>
<path d="M56.1942 32.1352C56.1861 31.7422 56.0243 31.3681 55.7436 31.0931C55.4628 30.8181 55.0854 30.6641 54.6924 30.6641C54.2994 30.6641 53.9221 30.8181 53.6413 31.0931C53.3605 31.3681 53.1988 31.7422 53.1907 32.1352" stroke="white" stroke-width="1.27619" stroke-linecap="round" stroke-linejoin="round"/>
<path d="M41.9263 36.6411H31.4137V46.404H21.6509V58.4193H31.4137V68.1821H43.429V58.4193H53.1919V55.4464" stroke="white" stroke-width="1.27619" stroke-linecap="round" stroke-linejoin="round"/>
</g>
</svg>
