<svg width="24" height="24" viewBox="0 0 24 24" fill="none" xmlns="http://www.w3.org/2000/svg">
<path fill-rule="evenodd" clip-rule="evenodd" d="M13.6349 20.7275V12.7662H16.3583L16.7669 9.66268H13.6349V7.6815C13.6349 6.78323 13.8882 6.17107 15.203 6.17107L16.8771 6.1704V3.39446C16.5876 3.35756 15.5938 3.27295 14.4371 3.27295C12.0217 3.27295 10.3681 4.71903 10.3681 7.37413V9.66268H7.63647V12.7662H10.3681V20.7275H13.6349Z" fill="#0F4A12"/>
<mask id="mask0_389_2640" style="mask-type:luminance" maskUnits="userSpaceOnUse" x="7" y="3" width="10" height="18">
<path fill-rule="evenodd" clip-rule="evenodd" d="M13.6349 20.7275V12.7662H16.3583L16.7669 9.66268H13.6349V7.6815C13.6349 6.78323 13.8882 6.17107 15.203 6.17107L16.8771 6.1704V3.39446C16.5876 3.35756 15.5938 3.27295 14.4371 3.27295C12.0217 3.27295 10.3681 4.71903 10.3681 7.37413V9.66268H7.63647V12.7662H10.3681V20.7275H13.6349Z" fill="white"/>
</mask>
<g mask="url(#mask0_389_2640)">
</g>
</svg>
