<svg width="116" height="19" viewBox="0 0 116 19" fill="none" xmlns="http://www.w3.org/2000/svg">
<g clip-path="url(#clip0_389_1361)">
<path d="M9.30176 0.708984C9.55981 0.0971557 10.4402 0.0971542 10.6982 0.708984L12.7275 5.52832C12.9093 5.95969 13.3191 6.25297 13.7871 6.29004L19.0527 6.70703C19.7278 6.7605 19.9907 7.58507 19.4854 8.0127L15.4736 11.4082C15.1157 11.7112 14.9577 12.1875 15.0674 12.6426L16.293 17.7197C16.4465 18.3557 15.7431 18.8768 15.1621 18.5264L10.6533 15.8057C10.252 15.5636 9.74804 15.5636 9.34668 15.8057L4.83789 18.5264C4.25686 18.8768 3.55347 18.3557 3.70703 17.7197L4.93262 12.6426C5.04233 12.1875 4.88436 11.7112 4.52637 11.4082L0.514648 8.0127C0.00933908 7.58507 0.272217 6.7605 0.947266 6.70703L6.21289 6.29004C6.68094 6.25297 7.0908 5.95973 7.27246 5.52832L9.30176 0.708984Z" fill="#FFFF00" stroke="black" stroke-width="0.5"/>
<path d="M33.3018 0.708984C33.5598 0.0971557 34.4402 0.0971542 34.6982 0.708984L36.7275 5.52832C36.9093 5.95969 37.3191 6.25297 37.7871 6.29004L43.0527 6.70703C43.7278 6.7605 43.9907 7.58507 43.4854 8.0127L39.4736 11.4082C39.1157 11.7112 38.9577 12.1875 39.0674 12.6426L40.293 17.7197C40.4465 18.3557 39.7431 18.8768 39.1621 18.5264L34.6533 15.8057C34.252 15.5636 33.748 15.5636 33.3467 15.8057L28.8379 18.5264C28.2569 18.8768 27.5535 18.3557 27.707 17.7197L28.9326 12.6426C29.0423 12.1875 28.8844 11.7112 28.5264 11.4082L24.5146 8.0127C24.0093 7.58507 24.2722 6.7605 24.9473 6.70703L30.2129 6.29004C30.6809 6.25297 31.0908 5.95973 31.2725 5.52832L33.3018 0.708984Z" fill="#FFFF00" stroke="black" stroke-width="0.5"/>
<path d="M57.3018 0.708984C57.5598 0.0971557 58.4402 0.0971542 58.6982 0.708984L60.7275 5.52832C60.9093 5.95969 61.3191 6.25297 61.7871 6.29004L67.0527 6.70703C67.7278 6.7605 67.9907 7.58507 67.4854 8.0127L63.4736 11.4082C63.1157 11.7112 62.9577 12.1875 63.0674 12.6426L64.293 17.7197C64.4465 18.3557 63.7431 18.8768 63.1621 18.5264L58.6533 15.8057C58.252 15.5636 57.748 15.5636 57.3467 15.8057L52.8379 18.5264C52.2569 18.8768 51.5535 18.3557 51.707 17.7197L52.9326 12.6426C53.0423 12.1875 52.8844 11.7112 52.5264 11.4082L48.5146 8.0127C48.0093 7.58507 48.2722 6.7605 48.9473 6.70703L54.2129 6.29004C54.6809 6.25297 55.0908 5.95973 55.2725 5.52832L57.3018 0.708984Z" fill="#FFFF00" stroke="black" stroke-width="0.5"/>
<path d="M81.3015 0.708984C81.5596 0.0971557 82.4399 0.0971542 82.698 0.708984L84.7273 5.52832C84.909 5.95969 85.3188 6.25297 85.7869 6.29004L91.0525 6.70703C91.7275 6.7605 91.9904 7.58507 91.4851 8.0127L87.4734 11.4082C87.1154 11.7112 86.9574 12.1875 87.0671 12.6426L88.2927 17.7197C88.4463 18.3557 87.7429 18.8768 87.1619 18.5264L82.6531 15.8057C82.2517 15.5636 81.7478 15.5636 81.3464 15.8057L76.8376 18.5264C76.2566 18.8768 75.5532 18.3557 75.7068 17.7197L76.9324 12.6426C77.0421 12.1875 76.8841 11.7112 76.5261 11.4082L72.5144 8.0127C72.0091 7.58507 72.272 6.7605 72.947 6.70703L78.2126 6.29004C78.6807 6.25297 79.0906 5.95973 79.2722 5.52832L81.3015 0.708984Z" fill="#FFFF00" stroke="black" stroke-width="0.5"/>
<path d="M105.302 0.708984C105.56 0.0971557 106.44 0.0971542 106.698 0.708984L108.727 5.52832C108.909 5.95969 109.319 6.25297 109.787 6.29004L115.052 6.70703C115.728 6.7605 115.99 7.58507 115.485 8.0127L111.473 11.4082C111.115 11.7112 110.957 12.1875 111.067 12.6426L112.293 17.7197C112.446 18.3557 111.743 18.8768 111.162 18.5264L106.653 15.8057C106.252 15.5636 105.748 15.5636 105.346 15.8057L100.838 18.5264C100.257 18.8768 99.5532 18.3557 99.7068 17.7197L100.932 12.6426C101.042 12.1875 100.884 11.7112 100.526 11.4082L96.5144 8.0127C96.0091 7.58507 96.272 6.7605 96.947 6.70703L102.213 6.29004C102.681 6.25297 103.091 5.95973 103.272 5.52832L105.302 0.708984Z" fill="#FFFF00" stroke="black" stroke-width="0.5"/>
</g>
<defs>
<clipPath id="clip0_389_1361">
<rect width="116" height="18.8889" fill="white"/>
</clipPath>
</defs>
</svg>
