<svg width="36" height="36" viewBox="0 0 36 36" fill="none" xmlns="http://www.w3.org/2000/svg">
<g clip-path="url(#clip0_389_2206)">
<path d="M25.2718 1.4743C26.2111 0.845706 27.3755 0.994066 27.9584 1.50102C28.2108 1.7211 28.4576 2.09586 28.1975 2.63305C27.6511 3.76649 26.4875 4.49844 25.2345 4.49844H21.6471C21.8159 4.93438 21.9094 5.40758 21.9094 5.90258C21.9094 6.34344 21.8349 6.76743 21.6999 7.16328H30.1367C30.6992 6.09453 30.74 4.86758 30.2386 3.74328L29.2107 1.43563C29.0904 1.16844 28.9062 0.919534 28.6559 0.701566C27.7826 -0.0564032 26.0951 -0.351716 24.6818 0.593284L20.8076 3.18711C21.0537 3.44164 21.2661 3.72852 21.4362 4.04141L25.2718 1.4743Z" fill="white"/>
<path d="M14.3016 7.16258C14.1666 6.76672 14.0921 6.34274 14.0921 5.90188C14.0921 5.40688 14.1856 4.93367 14.3544 4.49774H10.7691C9.51616 4.49774 8.35249 3.76508 7.80335 2.63164C7.54319 2.09516 7.78999 1.72039 8.04311 1.50102C8.3567 1.22821 8.83835 1.05946 9.36288 1.05946C9.81358 1.05946 10.2952 1.18391 10.729 1.4743L14.5639 4.04141C14.734 3.72782 14.9471 3.44094 15.1925 3.18711L11.3183 0.593284C9.90499 -0.351716 8.21749 -0.0564032 7.34631 0.701566C7.06717 0.944144 6.86889 1.22469 6.75217 1.52703L5.76288 3.74258C5.26084 4.86688 5.30163 6.09383 5.86483 7.16258H14.3016Z" fill="white"/>
<path d="M15.4454 7.16271H20.5536C20.7421 6.78232 20.8489 6.35412 20.8489 5.90201C20.8489 4.33193 19.5693 3.05225 17.9992 3.05225C16.4291 3.05225 15.1494 4.33193 15.1494 5.90201C15.1501 6.35482 15.257 6.78232 15.4454 7.16271Z" fill="white"/>
<path d="M1.13916 10.452V13.936C1.13916 14.9829 1.86479 15.8632 2.83861 16.1016H16.0356V8.22168H3.36877C2.13971 8.22168 1.13916 9.22223 1.13916 10.452Z" fill="white"/>
<path d="M2.83936 33.0409C2.83936 34.6729 4.16686 36.0004 5.79881 36.0004H16.0363V17.1602H2.83936V33.0409Z" fill="white"/>
<path d="M32.6312 8.22168H19.9658V16.1009H33.1607C34.1352 15.8625 34.8601 14.9822 34.8601 13.9353V10.4513C34.8608 9.22223 33.8603 8.22168 32.6312 8.22168Z" fill="white"/>
<path d="M19.9658 36.0004H30.2012C31.8332 36.0004 33.1607 34.6729 33.1607 33.0409V17.1602H19.9658V36.0004Z" fill="white"/>
</g>
<defs>
<clipPath id="clip0_389_2206">
<rect width="36" height="36" fill="white"/>
</clipPath>
</defs>
</svg>
