<svg width="38" height="33" viewBox="0 0 38 33" fill="none" xmlns="http://www.w3.org/2000/svg">
<mask id="mask0_389_1422" style="mask-type:luminance" maskUnits="userSpaceOnUse" x="1" y="0" width="35" height="33">
<path d="M13.8989 32.6925L35.6263 19.122L23.4483 0.203217L1.72089 13.7737L13.8989 32.6925Z" fill="white"/>
</mask>
<g mask="url(#mask0_389_1422)">
<path d="M14.6973 16.2226C13.1452 17.5264 10.9545 16.9094 9.34718 15.4972C7.62826 13.9851 7.32468 12.1048 8.49732 10.2447C9.98814 7.8778 12.3399 9.31814 13.8797 10.9662C15.2182 12.4505 16.3285 14.8516 14.6973 16.2226Z" fill="white"/>
<path d="M20.5372 12.5162C22.3961 11.6892 22.7649 9.47331 22.1548 7.43811C21.4998 5.26145 19.903 4.18897 17.6951 4.44059C14.8864 4.75963 15.206 7.47012 16.0628 9.5449C16.852 11.3717 18.5828 13.3851 20.5372 12.5162Z" fill="white"/>
<path d="M13.4866 24.2471C12.5061 25.6735 10.6452 25.6163 9.09143 24.7635C7.43103 23.8509 6.8267 22.3304 7.39732 20.5144C8.12092 18.2064 10.2708 18.9234 11.8142 19.9886C13.1693 20.9584 14.5167 22.7478 13.4866 24.2471Z" fill="white"/>
<path d="M27.7973 15.0676C29.5459 14.8926 30.3704 13.2593 30.3316 11.5188C30.289 9.65769 29.2016 8.41939 27.2943 8.05758C24.8684 7.59706 24.506 9.78928 24.7406 11.6221C24.9797 13.2482 25.9592 15.2516 27.7973 15.0676Z" fill="white"/>
<path d="M15.761 25.0937C14.942 23.259 14.7408 21.2578 15.1928 19.4434C15.6449 17.629 16.7212 16.1182 18.2317 15.1775C19.637 14.3133 21.3743 14.0879 23.0856 14.5479C25.2671 15.1517 26.9569 16.8685 28.2078 18.7122C29.0621 19.9713 29.8354 21.6382 28.841 22.9358C27.9783 24.0613 26.2732 24.4589 25.026 25.0057C24.1387 25.386 23.3312 25.9169 22.6327 26.5791C21.8025 27.3605 20.9675 28.2893 19.8109 28.5745C17.9757 29.0255 16.3894 26.8097 15.8304 25.1976C15.8016 25.167 15.7786 25.1312 15.7628 25.0926" fill="white"/>
</g>
</svg>
