<svg width="24" height="24" viewBox="0 0 24 24" fill="none" xmlns="http://www.w3.org/2000/svg">
<path d="M16.3997 2.18164C19.3876 2.18189 21.8187 4.61281 21.8186 7.60059V16.3994C21.8184 19.387 19.3875 21.8181 16.3997 21.8184H7.60083C4.61301 21.8184 2.18207 19.3873 2.18188 16.3994V7.60059C2.18188 4.61266 4.6129 2.18164 7.60083 2.18164H16.3997ZM7.60083 3.92383C5.57357 3.92383 3.92407 5.57332 3.92407 7.60059V16.3994C3.92425 18.4266 5.57368 20.0763 7.60083 20.0762H16.3997C18.4268 20.076 20.0762 18.4265 20.0764 16.3994V7.60059C20.0764 5.57347 18.4268 3.92407 16.3997 3.92383H7.60083ZM12.0002 6.85742C14.836 6.85752 17.1428 9.16418 17.1428 12C17.1428 14.8357 14.836 17.1425 12.0002 17.1426C9.16445 17.1426 6.8577 14.8357 6.85767 12C6.85767 9.16412 9.16443 6.85742 12.0002 6.85742ZM12.0002 8.62793C10.1409 8.62793 8.62817 10.1406 8.62817 12C8.62827 13.8592 10.141 15.3721 12.0002 15.3721C13.8594 15.372 15.3722 13.8592 15.3723 12C15.3723 10.1406 13.8595 8.62802 12.0002 8.62793Z" fill="#0F4A12"/>
<mask id="mask0_389_2642" style="mask-type:luminance" maskUnits="userSpaceOnUse" x="2" y="2" width="20" height="20">
<path d="M16.3997 2.18164C19.3876 2.18189 21.8187 4.61281 21.8186 7.60059V16.3994C21.8184 19.387 19.3875 21.8181 16.3997 21.8184H7.60083C4.61301 21.8184 2.18207 19.3873 2.18188 16.3994V7.60059C2.18188 4.61266 4.6129 2.18164 7.60083 2.18164H16.3997ZM7.60083 3.92383C5.57357 3.92383 3.92407 5.57332 3.92407 7.60059V16.3994C3.92425 18.4266 5.57368 20.0763 7.60083 20.0762H16.3997C18.4268 20.076 20.0762 18.4265 20.0764 16.3994V7.60059C20.0764 5.57347 18.4268 3.92407 16.3997 3.92383H7.60083ZM12.0002 6.85742C14.836 6.85752 17.1428 9.16418 17.1428 12C17.1428 14.8357 14.836 17.1425 12.0002 17.1426C9.16445 17.1426 6.8577 14.8357 6.85767 12C6.85767 9.16412 9.16443 6.85742 12.0002 6.85742ZM12.0002 8.62793C10.1409 8.62793 8.62817 10.1406 8.62817 12C8.62827 13.8592 10.141 15.3721 12.0002 15.3721C13.8594 15.372 15.3722 13.8592 15.3723 12C15.3723 10.1406 13.8595 8.62802 12.0002 8.62793Z" fill="white"/>
</mask>
<g mask="url(#mask0_389_2642)">
</g>
</svg>
