<svg width="48" height="48" viewBox="0 0 48 48" fill="none" xmlns="http://www.w3.org/2000/svg">
<path d="M20.22 41.6606H19.8259C19.4871 40.308 19.1559 38.9739 18.8379 37.6236C18.2327 35.0534 17.6122 33.4132 14.1662 32.4356L10.8349 30.0428C10.2821 29.6459 9.60628 29.4866 8.93128 29.595L6.71259 24.3577C5.21034 20.8117 3.25772 21.2255 2.69512 21.4371C1.30987 21.9577 0.496685 23.793 0.989154 25.2877L3.81722 33.8715C3.84693 33.9618 3.87712 34.0542 3.90778 34.1485C4.36968 35.5663 4.94456 37.3308 6.26747 38.2401L10.1237 40.8903C10.4292 41.1003 10.6458 41.3512 10.7897 41.6603H10.7047C10.7046 41.6603 10.7045 41.6603 10.7044 41.6603C10.2812 41.6603 9.88434 41.8242 9.58697 42.1219C9.2894 42.4196 9.12581 42.8167 9.12618 43.24L9.12843 45.5792C9.12928 46.4486 9.83728 47.156 10.7065 47.156L20.2222 47.1563C20.6455 47.1563 21.0425 46.9924 21.3399 46.6946C21.6373 46.397 21.8009 45.9998 21.8005 45.5765L21.7983 43.2375C21.7973 42.3679 21.0894 41.6606 20.22 41.6606ZM10.8671 39.8084L7.0109 37.1582C6.05465 36.5009 5.55618 34.9711 5.15578 33.7418C5.12465 33.646 5.09409 33.5523 5.0639 33.4606L2.23584 24.8768C1.94137 23.9829 2.49618 22.9138 3.15703 22.6655C3.92053 22.3786 4.79803 23.2025 5.50415 24.8694L7.73015 30.1239C7.54997 30.2682 7.38853 30.438 7.25053 30.6301C6.4244 31.7803 6.68793 33.3882 7.83815 34.2145L12.3908 37.4848C12.6854 37.6962 13.0955 37.6289 13.3068 37.3346C13.5182 37.0402 13.451 36.6302 13.1566 36.4187L8.6039 33.1485C8.0415 32.7443 7.91259 31.9582 8.31665 31.3958C8.51109 31.125 8.80125 30.9459 9.13378 30.8914C9.4664 30.8373 9.79856 30.914 10.0693 31.1085L13.4951 33.5692C13.5584 33.6145 13.6293 33.6484 13.7043 33.6689C16.626 34.4709 17.0169 35.616 17.5606 37.924C17.8554 39.176 18.1609 40.4117 18.473 41.6602L12.1812 41.6598C11.9735 40.8883 11.5323 40.2654 10.8671 39.8084ZM20.4113 45.767C20.3764 45.802 20.3152 45.8438 20.2216 45.8438L10.7068 45.8431C10.5604 45.8431 10.4412 45.7239 10.4411 45.5776L10.4389 43.2384C10.4388 43.1455 10.4805 43.0842 10.5155 43.0492C10.5505 43.0142 10.6117 42.9725 10.7047 42.9725L19.3104 42.9729C19.3114 42.9729 19.3123 42.9732 19.3132 42.9732C19.3146 42.9732 19.3158 42.973 19.3171 42.9729L20.2201 42.973C20.3665 42.973 20.4857 43.0922 20.4858 43.2386L20.488 45.5776C20.4881 45.6707 20.4463 45.7319 20.4113 45.767ZM45.3043 21.4369C44.7418 21.2255 42.7894 20.8115 41.2869 24.3575L39.0682 29.5948C38.3927 29.4865 37.7173 29.6457 37.1646 30.0427L33.8333 32.4354C30.3871 33.4131 29.7667 35.0532 29.1616 37.6234C28.8457 38.9649 28.5138 40.3023 28.1737 41.6604H27.7795C26.9102 41.6604 26.2022 42.3678 26.2013 43.2372L26.1991 45.5764C26.1987 45.9997 26.3623 46.3968 26.6597 46.6944C26.9572 46.9922 27.3541 47.1562 27.778 47.1562L37.2928 47.1555C38.1622 47.1555 38.8702 46.4482 38.871 45.5788L38.8732 43.2397C38.8736 42.8163 38.71 42.4192 38.4125 42.1214C38.1151 41.8237 37.7182 41.6599 37.2952 41.6599C37.2951 41.6599 37.2949 41.6599 37.2949 41.6599H37.2097C37.3537 41.3508 37.5702 41.0998 37.8757 40.8898L41.7319 38.2397C43.0547 37.3306 43.6295 35.5663 44.0914 34.1488C44.1221 34.0542 44.1523 33.9616 44.1822 33.871L47.0103 25.2872C47.5028 23.7928 46.6897 21.9576 45.3043 21.4369ZM37.2951 42.9726C37.388 42.9726 37.4492 43.0143 37.4842 43.0493C37.5192 43.0843 37.5609 43.1455 37.5608 43.2385L37.5586 45.5778C37.5585 45.7241 37.4393 45.8432 37.2928 45.8432L27.7775 45.8438C27.6845 45.8438 27.6232 45.8021 27.5882 45.7671C27.5532 45.732 27.5115 45.6708 27.5116 45.5778L27.5138 43.2386C27.5139 43.0922 27.6331 42.9731 27.7795 42.9731L28.6825 42.973C28.6838 42.973 28.6851 42.9733 28.6864 42.9733C28.6873 42.9733 28.6882 42.9731 28.6892 42.973L37.2951 42.9726ZM45.7638 24.8768L42.9357 33.4606C42.9055 33.5524 42.8749 33.6465 42.8436 33.7425C42.4432 34.9715 41.9448 36.5012 40.9886 37.1583L37.1325 39.8085C36.4674 40.2655 36.0261 40.8885 35.8186 41.6603L29.5267 41.6606C29.8401 40.407 30.1461 39.1688 30.4391 37.9245C30.9826 35.6165 31.3735 34.4714 34.2954 33.6694C34.3705 33.6488 34.4414 33.615 34.5046 33.5696L37.9304 31.1089C38.2011 30.9145 38.5334 30.8377 38.8659 30.8918C39.1985 30.9464 39.4886 31.1255 39.6831 31.3961C40.087 31.9586 39.9582 32.7449 39.3958 33.1489L34.8431 36.4192C34.5487 36.6307 34.4816 37.0407 34.6929 37.3351C34.9045 37.6294 35.3145 37.6966 35.6089 37.4853L40.1616 34.2149C41.3117 33.3888 41.5752 31.7808 40.7492 30.6306C40.6111 30.4384 40.4497 30.2687 40.2696 30.1244L42.4956 24.8699C43.2018 23.2029 44.0795 22.3791 44.8427 22.6659C45.5034 22.9138 46.0582 23.983 45.7638 24.8768ZM26.9115 28.267C32.0572 28.267 35.3334 25.8505 37.2594 23.6229C39.7093 20.7895 40.5181 17.7211 40.5513 17.5918C40.5952 17.4208 40.5685 17.2393 40.477 17.0884C40.3854 16.9373 40.237 16.8296 40.0651 16.7894C39.7864 16.7243 33.1847 15.2327 28.2521 18.6004C26.6693 19.681 25.4473 21.136 24.5943 22.9481L24.5944 18.1169C24.753 17.8688 24.9176 17.6161 25.0906 17.3508C26.4866 15.2097 28.0688 12.783 28.2262 10.1074C28.4021 7.11703 26.8286 3.38381 24.3997 1.02881C24.145 0.782156 23.7407 0.781969 23.4861 1.02881C20.9708 3.46706 19.4332 7.11984 19.6596 10.1181C19.8831 13.0761 21.9292 16.1078 23.1517 17.9191C23.1965 17.9856 23.2399 18.0498 23.2819 18.1122L23.2818 22.6931C22.436 20.999 21.2552 19.6298 19.7473 18.6003C14.8145 15.2323 8.21287 16.7241 7.93434 16.7893C7.7624 16.8295 7.614 16.9373 7.5224 17.0883C7.4309 17.2392 7.40418 17.4207 7.44815 17.5917C7.48134 17.7209 8.29012 20.7893 10.7399 23.6228C12.666 25.8505 15.9415 28.2669 21.0878 28.2669C21.7841 28.2669 22.5154 28.2223 23.2816 28.1273L23.2815 33.6816C23.2815 34.044 23.5753 34.3378 23.9377 34.3378C24.3001 34.3378 24.594 34.044 24.594 33.6816L24.5941 28.1113C25.4056 28.2172 26.1777 28.267 26.9115 28.267ZM28.9859 19.6888C32.5558 17.2472 37.2955 17.6703 39.0632 17.9408C38.7031 18.9481 37.8591 20.9228 36.2666 22.7647C33.5545 25.9014 29.9439 27.2857 25.5183 26.893L32.3229 22.9646C32.6368 22.7834 32.7443 22.3821 32.5631 22.0682C32.3818 21.7543 31.9806 21.6467 31.6667 21.828L25.007 25.6727C25.7009 23.032 27.0345 21.0235 28.9859 19.6888ZM20.9686 10.0193C20.7836 7.57144 21.9642 4.60172 23.9419 2.44266C25.855 4.55147 27.0603 7.58287 26.9163 10.0305C26.8001 12.0041 25.7179 13.9373 24.5947 15.7013L24.5948 9.7095C24.5948 9.34706 24.301 9.05325 23.9386 9.05325C23.5762 9.05325 23.2823 9.34706 23.2823 9.7095L23.2822 15.7307C22.2436 14.0852 21.117 11.9845 20.9686 10.0193ZM11.7645 22.8009C10.1576 20.9557 9.30159 18.9557 8.93728 17.9396C10.7029 17.6676 15.4305 17.2423 19.0073 19.6845C20.9806 21.0319 22.322 23.0679 23.0109 25.7481L16.2204 21.8273C15.9064 21.6459 15.5052 21.7538 15.324 22.0675C15.1428 22.3814 15.2503 22.7828 15.5642 22.964L22.3847 26.902C18.0213 27.2647 14.4536 25.8891 11.7645 22.8009Z" fill="white"/>
</svg>
