<svg width="40" height="40" viewBox="0 0 40 40" fill="none" xmlns="http://www.w3.org/2000/svg">
<path d="M11 14H30L27 24H14L11 14ZM11 14L10.25 11.5" stroke="#0F4A12" stroke-width="1.5" stroke-linecap="round" stroke-linejoin="round"/>
<path d="M19 27.5C19 28.3284 18.3284 29 17.5 29C16.6716 29 16 28.3284 16 27.5" stroke="#0F4A12" stroke-width="1.5" stroke-linecap="round" stroke-linejoin="round"/>
<path d="M25 27.5C25 28.3284 24.3284 29 23.5 29C22.6716 29 22 28.3284 22 27.5" stroke="#0F4A12" stroke-width="1.5" stroke-linecap="round" stroke-linejoin="round"/>
<circle cx="28.5" cy="12.5" r="7.5" fill="#FF5050"/>
<path d="M25.696 10.412C25.744 9.668 26.028 9.088 26.548 8.672C27.076 8.256 27.748 8.048 28.564 8.048C29.124 8.048 29.608 8.148 30.016 8.348C30.424 8.548 30.732 8.82 30.94 9.164C31.148 9.508 31.252 9.896 31.252 10.328C31.252 10.824 31.12 11.248 30.856 11.6C30.592 11.952 30.276 12.188 29.908 12.308V12.356C30.38 12.5 30.748 12.764 31.012 13.148C31.276 13.524 31.408 14.008 31.408 14.6C31.408 15.072 31.3 15.492 31.084 15.86C30.868 16.228 30.548 16.52 30.124 16.736C29.7 16.944 29.192 17.048 28.6 17.048C27.736 17.048 27.024 16.828 26.464 16.388C25.912 15.94 25.616 15.3 25.576 14.468H26.896C26.928 14.892 27.092 15.24 27.388 15.512C27.684 15.776 28.084 15.908 28.588 15.908C29.076 15.908 29.452 15.776 29.716 15.512C29.98 15.24 30.112 14.892 30.112 14.468C30.112 13.908 29.932 13.512 29.572 13.28C29.22 13.04 28.676 12.92 27.94 12.92H27.628V11.792H27.952C28.6 11.784 29.092 11.676 29.428 11.468C29.772 11.26 29.944 10.932 29.944 10.484C29.944 10.1 29.82 9.796 29.572 9.572C29.324 9.34 28.972 9.224 28.516 9.224C28.068 9.224 27.72 9.34 27.472 9.572C27.224 9.796 27.076 10.076 27.028 10.412H25.696Z" fill="white"/>
</svg>
