<svg width="89" height="89" viewBox="0 0 89 89" fill="none" xmlns="http://www.w3.org/2000/svg">
<path d="M44.5 89C69.0767 89 89 69.0767 89 44.5C89 19.9233 69.0767 0 44.5 0C19.9233 0 0 19.9233 0 44.5C0 69.0767 19.9233 89 44.5 89Z" fill="#1A1A1A"/>
<path d="M41.22 62.6606H40.8259C40.4871 61.308 40.1559 59.9739 39.8379 58.6236C39.2327 56.0534 38.6122 54.4132 35.1662 53.4356L31.8349 51.0428C31.2821 50.6459 30.6063 50.4866 29.9313 50.595L27.7126 45.3577C26.2103 41.8117 24.2577 42.2255 23.6951 42.4371C22.3099 42.9577 21.4967 44.793 21.9892 46.2877L24.8172 54.8715C24.8469 54.9618 24.8771 55.0542 24.9078 55.1485C25.3697 56.5663 25.9446 58.3308 27.2675 59.2401L31.1237 61.8903C31.4292 62.1003 31.6458 62.3512 31.7897 62.6603H31.7047C31.7046 62.6603 31.7045 62.6603 31.7044 62.6603C31.2812 62.6603 30.8843 62.8242 30.587 63.1219C30.2894 63.4196 30.1258 63.8167 30.1262 64.24L30.1284 66.5792C30.1293 67.4486 30.8373 68.156 31.7065 68.156L41.2222 68.1563C41.6455 68.1563 42.0425 67.9924 42.3399 67.6946C42.6373 67.397 42.8009 66.9998 42.8005 66.5765L42.7983 64.2375C42.7973 63.3679 42.0894 62.6606 41.22 62.6606ZM31.8671 60.8084L28.0109 58.1582C27.0547 57.5009 26.5562 55.9711 26.1558 54.7418C26.1247 54.646 26.0941 54.5523 26.0639 54.4606L23.2358 45.8768C22.9414 44.9829 23.4962 43.9138 24.157 43.6655C24.9205 43.3786 25.798 44.2025 26.5042 45.8694L28.7302 51.1239C28.55 51.2682 28.3885 51.438 28.2505 51.6301C27.4244 52.7803 27.6879 54.3882 28.8382 55.2145L33.3908 58.4848C33.6854 58.6962 34.0955 58.6289 34.3068 58.3346C34.5182 58.0402 34.451 57.6302 34.1566 57.4187L29.6039 54.1485C29.0415 53.7443 28.9126 52.9582 29.3167 52.3958C29.5111 52.125 29.8012 51.9459 30.1338 51.8914C30.4664 51.8373 30.7986 51.914 31.0693 52.1085L34.4951 54.5692C34.5584 54.6145 34.6293 54.6484 34.7043 54.6689C37.626 55.4709 38.0169 56.616 38.5606 58.924C38.8554 60.176 39.1609 61.4117 39.473 62.6602L33.1812 62.6598C32.9735 61.8883 32.5323 61.2654 31.8671 60.8084ZM41.4113 66.767C41.3764 66.802 41.3152 66.8438 41.2216 66.8438L31.7068 66.8431C31.5604 66.8431 31.4412 66.7239 31.4411 66.5776L31.4389 64.2384C31.4388 64.1455 31.4805 64.0842 31.5155 64.0492C31.5505 64.0142 31.6117 63.9725 31.7047 63.9725L40.3104 63.9729C40.3114 63.9729 40.3123 63.9732 40.3132 63.9732C40.3146 63.9732 40.3158 63.973 40.3171 63.9729L41.2201 63.973C41.3665 63.973 41.4857 64.0922 41.4858 64.2386L41.488 66.5776C41.4881 66.6707 41.4463 66.7319 41.4113 66.767ZM66.3043 42.4369C65.7418 42.2255 63.7894 41.8115 62.2869 45.3575L60.0682 50.5948C59.3927 50.4865 58.7173 50.6457 58.1646 51.0427L54.8333 53.4354C51.3871 54.4131 50.7667 56.0532 50.1616 58.6234C49.8457 59.9649 49.5138 61.3023 49.1737 62.6604H48.7795C47.9102 62.6604 47.2022 63.3678 47.2013 64.2372L47.1991 66.5764C47.1987 66.9997 47.3623 67.3968 47.6597 67.6944C47.9572 67.9922 48.3541 68.1562 48.778 68.1562L58.2928 68.1555C59.1622 68.1555 59.8702 67.4482 59.871 66.5788L59.8732 64.2397C59.8736 63.8163 59.71 63.4192 59.4125 63.1214C59.1151 62.8237 58.7182 62.6599 58.2952 62.6599C58.2951 62.6599 58.2949 62.6599 58.2949 62.6599H58.2097C58.3537 62.3508 58.5702 62.0998 58.8757 61.8898L62.7319 59.2397C64.0547 58.3306 64.6295 56.5663 65.0914 55.1488C65.1221 55.0542 65.1523 54.9616 65.1822 54.871L68.0103 46.2872C68.5028 44.7928 67.6897 42.9576 66.3043 42.4369ZM58.2951 63.9726C58.388 63.9726 58.4492 64.0143 58.4842 64.0493C58.5192 64.0843 58.5609 64.1455 58.5608 64.2385L58.5586 66.5778C58.5585 66.7241 58.4393 66.8432 58.2928 66.8432L48.7775 66.8438C48.6845 66.8438 48.6232 66.8021 48.5882 66.7671C48.5532 66.732 48.5115 66.6708 48.5116 66.5778L48.5138 64.2386C48.5139 64.0922 48.6331 63.9731 48.7795 63.9731L49.6825 63.973C49.6838 63.973 49.6851 63.9733 49.6864 63.9733C49.6873 63.9733 49.6882 63.9731 49.6892 63.973L58.2951 63.9726ZM66.7638 45.8768L63.9357 54.4606C63.9055 54.5524 63.8749 54.6465 63.8436 54.7425C63.4432 55.9715 62.9448 57.5012 61.9886 58.1583L58.1325 60.8085C57.4674 61.2655 57.0261 61.8885 56.8186 62.6603L50.5267 62.6606C50.8401 61.407 51.1461 60.1688 51.4391 58.9245C51.9826 56.6165 52.3735 55.4714 55.2954 54.6694C55.3705 54.6488 55.4414 54.615 55.5046 54.5696L58.9304 52.1089C59.2011 51.9145 59.5334 51.8377 59.8659 51.8918C60.1985 51.9464 60.4886 52.1255 60.6831 52.3961C61.087 52.9586 60.9582 53.7449 60.3958 54.1489L55.8431 57.4192C55.5487 57.6307 55.4816 58.0407 55.6929 58.3351C55.9045 58.6294 56.3145 58.6966 56.6089 58.4853L61.1616 55.2149C62.3117 54.3888 62.5752 52.7808 61.7492 51.6306C61.6111 51.4384 61.4497 51.2687 61.2696 51.1244L63.4956 45.8699C64.2018 44.2029 65.0795 43.3791 65.8427 43.6659C66.5034 43.9138 67.0582 44.983 66.7638 45.8768ZM47.9115 49.267C53.0572 49.267 56.3334 46.8505 58.2594 44.6229C60.7093 41.7895 61.5181 38.7211 61.5513 38.5918C61.5952 38.4208 61.5685 38.2393 61.477 38.0884C61.3854 37.9373 61.237 37.8296 61.0651 37.7894C60.7864 37.7243 54.1847 36.2327 49.2521 39.6004C47.6693 40.681 46.4473 42.136 45.5943 43.9481L45.5944 39.1169C45.753 38.8688 45.9176 38.6161 46.0906 38.3508C47.4866 36.2097 49.0688 33.783 49.2262 31.1074C49.4021 28.117 47.8286 24.3838 45.3997 22.0288C45.145 21.7822 44.7407 21.782 44.4861 22.0288C41.9708 24.4671 40.4332 28.1198 40.6596 31.1181C40.8831 34.0761 42.9292 37.1078 44.1517 38.9191C44.1965 38.9856 44.2399 39.0498 44.2819 39.1122L44.2818 43.6931C43.436 41.999 42.2552 40.6298 40.7473 39.6003C35.8145 36.2323 29.2129 37.7241 28.9343 37.7893C28.7624 37.8295 28.614 37.9373 28.5224 38.0883C28.4309 38.2392 28.4042 38.4207 28.4482 38.5917C28.4813 38.7209 29.2901 41.7893 31.7399 44.6228C33.666 46.8505 36.9415 49.2669 42.0878 49.2669C42.7841 49.2669 43.5154 49.2223 44.2816 49.1273L44.2815 54.6816C44.2815 55.044 44.5753 55.3378 44.9377 55.3378C45.3001 55.3378 45.594 55.044 45.594 54.6816L45.5941 49.1113C46.4056 49.2172 47.1777 49.267 47.9115 49.267ZM49.9859 40.6888C53.5558 38.2472 58.2955 38.6703 60.0632 38.9408C59.7031 39.9481 58.8591 41.9228 57.2666 43.7647C54.5545 46.9014 50.9439 48.2857 46.5183 47.893L53.3229 43.9646C53.6368 43.7834 53.7443 43.3821 53.5631 43.0682C53.3818 42.7543 52.9806 42.6467 52.6667 42.828L46.007 46.6727C46.7009 44.032 48.0345 42.0235 49.9859 40.6888ZM41.9686 31.0193C41.7836 28.5714 42.9642 25.6017 44.9419 23.4427C46.855 25.5515 48.0603 28.5829 47.9163 31.0305C47.8001 33.0041 46.7179 34.9373 45.5947 36.7013L45.5948 30.7095C45.5948 30.3471 45.301 30.0533 44.9386 30.0533C44.5762 30.0533 44.2823 30.3471 44.2823 30.7095L44.2822 36.7307C43.2436 35.0852 42.117 32.9845 41.9686 31.0193ZM32.7645 43.8009C31.1576 41.9557 30.3016 39.9557 29.9373 38.9396C31.7029 38.6676 36.4305 38.2423 40.0073 40.6845C41.9806 42.0319 43.322 44.0679 44.0109 46.7481L37.2204 42.8273C36.9064 42.6459 36.5052 42.7538 36.324 43.0675C36.1428 43.3814 36.2503 43.7828 36.5642 43.964L43.3847 47.902C39.0213 48.2647 35.4536 46.8891 32.7645 43.8009Z" fill="white"/>
</svg>
