<svg width="130" height="155" viewBox="0 0 130 155" fill="none" xmlns="http://www.w3.org/2000/svg">
<g clip-path="url(#clip0_389_2580)">
<path d="M46.8872 128.682C46.8872 124.972 46.969 121.549 46.8545 118.134C46.7932 116.375 47.3655 115.612 49.1806 115.842C49.8511 115.926 50.546 115.926 51.2205 115.878C52.3816 115.797 52.7863 116.314 52.7863 117.42C52.7822 127.309 52.7944 137.203 52.8312 147.092C52.8353 148.323 52.3202 148.694 51.1183 148.735C46.9404 148.876 46.9363 148.916 46.924 144.864C46.9158 141.905 46.8749 138.942 46.9363 135.984C46.9649 134.64 46.5724 134.054 45.0844 134.091C42.0183 134.167 38.9482 134.139 35.8822 134.01C34.3083 133.941 33.9158 134.514 33.9567 135.988C34.0507 139.616 33.9485 143.253 34.0017 146.886C34.0221 148.198 33.552 148.67 32.2111 148.606C27.6325 148.392 28.307 149.094 28.2743 144.715C28.213 135.766 28.2375 126.817 28.119 117.872C28.0985 116.161 28.63 115.68 30.3224 115.737C34.2551 115.874 33.9812 115.41 33.9526 119.345C33.9363 121.969 33.8954 124.597 34.0139 127.216C34.0385 127.721 34.7294 128.609 35.1341 128.617C38.936 128.726 42.7419 128.682 46.8872 128.682Z" fill="black"/>
<path d="M87.3915 70.6669C83.3238 70.6669 79.2521 70.7274 75.1886 70.5821C74.7308 70.5659 73.9908 69.4357 73.9295 68.7697C73.5616 64.7535 73.304 60.7251 73.1242 56.6926C73.0587 55.2193 72.6949 54.521 70.9984 54.5856C67.5276 54.7148 64.0446 54.6946 60.5698 54.6018C58.9713 54.5574 58.3704 55.1063 58.4276 56.6725C58.4726 57.9439 58.399 59.2437 58.166 60.491C57.5364 63.8856 58.4358 66.6748 61.1911 68.8666C61.6245 69.2097 61.9065 69.7425 62.4421 70.4247C61.6735 70.574 61.2402 70.7314 60.8028 70.7314C57.3933 70.7355 53.9839 70.679 50.5786 70.7072C49.1804 70.7193 48.4937 70.3036 48.4078 68.7697C47.9663 61.052 47.3981 53.3383 46.9565 45.6206C46.887 44.3814 46.5641 43.7316 45.2927 43.2997C40.8572 41.786 38.1795 38.6214 37.4314 34.0925C36.6547 29.382 38.715 25.7209 42.4556 22.9156C44.4097 21.4503 44.7817 21.5755 45.8977 23.7511C46.1144 24.1709 46.3025 24.6109 46.5723 24.9943C47.627 26.508 47.8764 27.6745 45.9059 28.8653C44.099 29.9592 43.7924 31.9451 44.3157 33.9109C44.8594 35.9452 46.4414 37.1723 48.7021 37.2006C56.265 37.2894 63.8279 37.3257 71.3908 37.2531C72.0081 37.249 72.8871 36.3852 73.1855 35.7232C75.5688 30.4476 77.8418 25.1235 80.1515 19.8156C80.5399 18.9235 80.9609 18.0436 81.566 16.7236C83.3034 19.7429 84.7301 22.3908 86.3326 24.9298C86.8682 25.7774 87.7389 26.5686 88.6465 27.0126C90.899 28.1145 93.2414 29.0631 95.5921 29.9551C96.8062 30.4153 97.166 30.9723 96.655 32.2156C95.9641 33.8947 95.543 35.6829 94.7908 37.3298C94.5087 37.9473 93.6257 38.3025 93.0043 38.7546C92.9144 38.8192 92.7386 38.7627 92.6037 38.7667C87.4528 38.8717 87.4936 38.8798 86.2754 43.7679C84.7097 50.0527 83.516 56.3738 83.3729 62.8765C83.3361 64.4749 83.6059 65.6899 84.7587 66.812C85.8012 67.8292 86.6801 69.0038 87.6326 70.1058C87.5468 70.2915 87.465 70.4812 87.3792 70.6669H87.3915ZM43.8823 23.6986C40.0886 26.2093 38.4003 29.6201 39.0298 33.9351C39.6348 38.0805 42.0386 41.0231 46.2166 42.0726C47.9091 42.4964 48.2892 43.2028 48.3751 44.7568C48.7962 52.2768 49.3276 59.7926 49.8631 67.3045C49.904 67.8898 50.2719 68.9433 50.5254 68.9514C53.3748 69.0684 56.2282 69.0281 59.1839 69.0281C58.1169 67.587 56.5553 66.4407 56.5144 65.2459C56.3672 61.3144 56.7719 57.3627 56.9764 53.2334C62.5279 53.2334 67.8342 53.1971 73.1364 53.302C73.5657 53.3101 74.2933 54.2788 74.3424 54.848C74.7103 59.0701 74.9106 63.3044 75.2459 67.5265C75.2867 68.0633 75.761 69.0079 76.0676 69.02C78.8679 69.137 81.6804 69.0886 84.9223 69.0886C84.305 68.3984 84.0883 68.0553 83.7858 67.8333C82.0974 66.582 81.8031 64.9674 81.8194 62.9169C81.8685 55.9822 83.3238 49.31 85.1757 42.6861C85.6459 41.011 85.5355 38.6376 86.6352 37.8182C87.837 36.9261 90.1304 37.471 91.9496 37.3903C92.154 37.3822 92.4034 37.4589 92.5547 37.3661C92.9716 37.1077 93.5644 36.8615 93.7075 36.474C94.3084 34.8473 94.7663 33.1682 95.3468 31.2952C92.9553 30.3265 90.7109 29.39 88.4421 28.5141C86.9377 27.9329 85.7685 27.1417 85.0286 25.5917C84.1496 23.7511 82.9437 22.0598 81.6927 19.9932C81.1163 21.2727 80.7075 22.1769 80.3069 23.0851C78.1893 27.8925 76.1003 32.712 73.9254 37.4952C73.676 38.0442 72.9565 38.7627 72.4455 38.7667C64.4738 38.8354 56.4981 38.8959 48.5264 38.7344C45.9059 38.682 43.9069 37.1441 42.9216 34.6576C42.0304 32.3972 42.472 30.2538 44.0418 28.4213C45.8405 26.3143 45.8855 26.3506 43.8864 23.6946L43.8823 23.6986Z" fill="black"/>
<path d="M69.4286 133.78V131.103C68.7582 131.051 68.1695 130.97 67.5849 130.966C64.5189 130.95 61.4487 130.954 58.3827 130.95C54.4214 130.95 54.4623 130.95 54.6462 127.119C54.6994 126.005 55.0714 125.549 56.2079 125.553C62.1396 125.59 68.0714 125.602 74.0031 125.582C75.0783 125.582 75.4217 125.997 75.4217 127.023C75.4217 133.683 75.4462 140.343 75.4994 147.003C75.5116 148.303 74.9802 148.876 73.6638 148.71C72.2289 148.529 70.794 148.274 69.355 148.202C68.7991 148.174 68.2226 148.557 67.6544 148.743C63.5745 150.079 59.4129 148.593 57.3852 145.082C55.427 141.695 56.2774 136.92 59.4129 134.466C61.7186 132.657 64.4289 132.573 67.1965 133.158C67.9079 133.307 68.6028 133.541 69.4368 133.771L69.4286 133.78ZM66.105 143.766C68.3984 143.826 69.9192 142.648 69.9274 140.803C69.9355 139.132 68.5129 137.897 66.5097 137.828C64.0487 137.743 62.3604 138.894 62.3277 140.678C62.295 142.446 63.8362 143.705 66.105 143.766Z" fill="black"/>
<path d="M91.4424 139.487C91.4424 137.134 91.3565 134.781 91.4751 132.436C91.5487 130.95 91.1153 130.421 89.5496 130.466C86.7084 130.551 85.6292 129.065 86.6348 126.433C86.8106 125.973 87.9062 125.667 88.5971 125.626C91.4097 125.473 91.4138 125.521 91.4219 122.736C91.4301 120.988 91.4873 119.241 91.4219 117.497C91.377 116.322 91.9207 115.951 92.9958 115.947C96.9449 115.939 100.894 115.959 104.839 115.87C106.486 115.834 106.401 116.879 106.274 117.88C106.147 118.893 107.042 120.504 104.863 120.508C102.824 120.508 100.779 120.556 98.7395 120.649C96.2867 120.762 97.4028 122.659 97.1943 123.85C96.9776 125.085 97.5213 125.751 98.9072 125.618C99.7166 125.537 100.538 125.594 101.356 125.594C104.168 125.59 105.166 126.922 104.238 129.542C104.119 129.881 103.625 130.183 103.24 130.313C102.807 130.454 102.3 130.385 101.822 130.393C98.715 130.444 97.1656 131.976 97.1738 134.987C97.182 138.882 97.1329 142.781 97.2106 146.676C97.2392 148.158 96.7446 148.69 95.2157 148.662C90.5798 148.577 91.5201 149.074 91.4383 144.937C91.4015 143.124 91.4342 141.308 91.4342 139.495H91.4465L91.4424 139.487Z" fill="black"/>
<path d="M19.9941 110.434C15.6649 111.12 15.1988 110.894 13.49 107.491C8.53529 97.63 15.7711 84.9071 26.8538 83.9908C34.3186 83.3732 42.2658 89.8921 43.2755 97.408C43.8847 101.953 42.8095 106.09 40.2913 109.877C38.9218 111.931 36.8737 110.587 34.6988 111.14C35.173 110.183 35.3938 109.731 35.6227 109.283C38.6601 103.289 38.9545 97.2304 35.4919 91.3735C31.8372 85.1856 23.191 85.2098 19.4994 91.3694C16.1718 96.9276 16.135 102.704 19.013 108.496C19.3032 109.081 19.6016 109.659 19.9982 110.438L19.9941 110.434Z" fill="black"/>
<path d="M68.3248 98.0818C70.8472 95.7124 73.4145 94.554 76.5418 95.2038C79.2686 95.773 81.4434 98.1505 81.5374 100.867C81.6396 103.753 81.4802 106.651 81.5865 109.537C81.6601 111.576 80.2374 110.93 79.2154 110.998C78.1198 111.071 76.9915 111.245 77.0814 109.481C77.1918 107.265 77.1182 105.041 77.0937 102.821C77.0651 100.205 75.9409 98.764 73.766 98.4976C71.2846 98.1908 68.9626 99.6036 68.6151 102.025C68.284 104.338 68.2676 106.72 68.3862 109.061C68.472 110.724 67.9201 111.212 66.3258 111.099C64.9359 110.998 63.6481 111.249 63.6808 109.093C63.7871 102.167 63.6931 95.2361 63.7299 88.3055C63.738 86.7959 63.6318 85.6011 61.6286 85.6576C61.3343 85.6657 61.0195 85.0239 60.7129 84.6808C61.0849 84.4023 61.4528 83.8897 61.8371 83.8775C64.7682 83.8008 67.6994 83.7887 70.6264 83.8452C71.0189 83.8533 71.3991 84.366 71.7874 84.6445C71.395 84.9916 70.9821 85.6536 70.6141 85.6294C68.5415 85.4962 68.2676 86.6466 68.3003 88.2934C68.3657 91.4217 68.3208 94.554 68.3208 98.0738L68.3248 98.0818Z" fill="black"/>
<path d="M79.0601 132.271C79.0601 127.427 79.1132 122.579 79.0274 117.735C79.0029 116.262 79.5507 115.887 80.9324 115.911C85.4824 115.991 84.9183 115.455 84.9346 119.725C84.9673 128.472 84.9592 137.223 84.9592 145.974C84.9592 148.679 84.9469 148.679 82.2897 148.687C81.8809 148.687 81.4639 148.646 81.0632 148.699C79.5629 148.905 79.0437 148.36 79.0765 146.806C79.1746 141.962 79.1132 137.114 79.1132 132.271C79.0969 132.271 79.0765 132.271 79.0601 132.271Z" fill="black"/>
<path d="M91.7328 110.922C90.1998 110.922 88.7976 110.995 87.4199 110.874C87.0275 110.838 86.4837 110.297 86.3488 109.881C85.0488 105.784 85.8215 101.933 88.5114 98.6797C90.9438 95.7331 94.3001 94.4777 98.2042 95.2083C101.765 95.8744 104.43 99.0551 104.627 102.611C104.696 103.899 104.14 104.234 102.95 104.226C99.541 104.214 96.1356 104.282 92.7262 104.311C90.5268 104.327 90.208 104.642 90.6209 106.793C90.8702 108.093 91.3036 109.356 91.7328 110.922ZM90.8907 102.014C93.462 102.014 95.8208 102.03 98.1837 102.01C100.097 101.994 100.849 100.847 99.7004 99.3417C99.0014 98.4254 97.7422 97.602 96.6098 97.3961C93.8054 96.8875 91.8595 98.5142 90.8907 102.014Z" fill="black"/>
<path d="M48.1671 98.7846C46.8181 98.1671 45.8655 97.7271 44.9089 97.2911C45.6284 96.609 46.536 96.0318 47.0143 95.2124C47.6234 94.1669 48.1876 92.9318 48.2284 91.7612C48.2979 89.747 49.6265 90.191 50.7794 90.1224C52.0426 90.0457 52.7703 90.3202 52.7703 91.8782C52.7662 95.2891 52.8602 95.2891 56.2328 95.3092C56.6416 95.3092 57.0504 95.3214 57.4552 95.3254C58.5385 95.3456 59.7118 95.1316 59.6791 96.8471C59.6504 98.4859 58.5017 98.1711 57.5247 98.1913C56.6416 98.2074 55.7464 98.2801 54.8756 98.1671C53.1055 97.941 52.6721 98.7322 52.7294 100.343C52.8316 103.293 52.6558 106.252 52.7989 109.199C52.8888 111.096 51.7769 111.031 50.4769 111.031C49.1809 111.031 48.069 111.1 48.1344 109.211C48.253 105.663 48.1671 102.111 48.1671 98.7806V98.7846Z" fill="black"/>
<path d="M113.403 98.3194C114.879 97.2699 116.203 96.1114 117.724 95.3364C118.521 94.9328 119.743 94.9651 120.647 95.2234C122.204 95.6674 122.756 96.9833 122.204 98.4364C121.661 99.8815 120.356 100.015 118.95 99.7241C117.765 99.4778 115.925 98.7594 115.492 99.2357C114.449 100.382 113.82 102.057 113.484 103.615C113.153 105.161 113.288 106.836 113.399 108.439C113.509 110.029 113.063 110.675 111.293 110.736C109.302 110.804 109.262 109.779 109.286 108.366C109.339 105.541 109.286 102.715 109.347 99.8936C109.384 98.3275 109.225 97.0479 107.201 96.9308C106.911 96.9147 106.653 96.3334 106.384 96.0146C106.747 95.7885 107.087 95.4252 107.475 95.3687C108.211 95.2638 108.971 95.3243 109.719 95.3324C111.867 95.3512 113.093 96.3482 113.399 98.3234L113.403 98.3194Z" fill="black"/>
<path d="M110.804 119.128C110.792 117.203 112.08 115.612 113.686 115.572C115.321 115.532 116.638 117.078 116.634 119.031C116.634 121.082 115.301 122.713 113.629 122.717C112.059 122.721 110.82 121.142 110.804 119.124V119.128ZM111.532 118.737C111.507 120.803 112.325 121.909 113.649 121.925C115.064 121.942 116 120.775 115.984 119.007C115.971 117.558 115.334 116.44 113.813 116.379C112.092 116.311 111.577 117.57 111.532 118.737Z" fill="black"/>
<path d="M43.8799 23.698C45.879 26.354 45.834 26.3177 44.0353 28.4247C42.4696 30.2573 42.024 32.4006 42.9152 34.661C43.8963 37.1475 45.8994 38.6854 48.5199 38.7379C56.4916 38.8953 64.4674 38.8388 72.4391 38.7702C72.946 38.7661 73.6655 38.0476 73.9189 37.4987C76.0938 32.7155 78.1828 27.8959 80.3004 23.0885C80.701 22.1803 81.1098 21.2802 81.6862 19.9966C82.9372 22.0632 84.1432 23.7545 85.0221 25.5951C85.762 27.1411 86.9312 27.9363 88.4356 28.5175C90.7045 29.3894 92.9447 30.3299 95.3403 31.2987C94.7639 33.1716 94.302 34.8507 93.701 36.4774C93.5579 36.8649 92.9693 37.1112 92.5482 37.3695C92.401 37.4623 92.1476 37.3856 91.9432 37.3937C90.124 37.4744 87.8306 36.9295 86.6287 37.8216C85.529 38.6369 85.6394 41.0144 85.1693 42.6896C83.3174 49.3134 81.862 55.9816 81.813 62.9203C81.7966 64.9708 82.091 66.5894 83.7793 67.8367C84.0818 68.0627 84.2985 68.4018 84.9158 69.092C81.674 69.092 78.8655 69.1405 76.0611 69.0234C75.7545 69.0113 75.2843 68.0668 75.2394 67.5299C74.9082 63.3078 74.7038 59.0735 74.3359 54.8514C74.2869 54.2823 73.5592 53.3135 73.1299 53.3054C67.8277 53.2005 62.5215 53.2368 56.9699 53.2368C56.7696 57.3702 56.3648 61.3178 56.5079 65.2493C56.5529 66.4481 58.1104 67.5905 59.1774 69.0315C56.2218 69.0315 53.3683 69.0759 50.5189 68.9548C50.2655 68.9427 49.9016 67.8932 49.8567 67.3079C49.3211 59.7961 48.7897 52.2802 48.3686 44.7603C48.2828 43.2103 47.9026 42.5039 46.2101 42.076C42.0321 41.0265 39.6325 38.0799 39.0233 33.9385C38.3897 29.6235 40.0821 26.2127 43.8759 23.7021L43.8799 23.698Z" fill="#DEED6E"/>
<path d="M66.1053 143.766C63.8364 143.705 62.2952 142.446 62.3279 140.678C62.3606 138.894 64.0449 137.743 66.51 137.828C68.5172 137.897 69.9358 139.132 69.9276 140.803C69.9194 142.648 68.3987 143.826 66.1053 143.766Z" fill="white"/>
<path d="M90.8887 102.013C91.8535 98.5138 93.7994 96.883 96.6079 97.3957C97.7402 97.6015 98.9994 98.425 99.6984 99.3412C100.851 100.847 100.099 101.993 98.1818 102.009C95.8229 102.03 93.4601 102.013 90.8887 102.013Z" fill="white"/>
<path d="M111.531 118.737C111.576 117.57 112.091 116.311 113.812 116.38C115.332 116.44 115.97 117.554 115.982 119.007C115.999 120.775 115.063 121.946 113.648 121.926C112.324 121.91 111.506 120.804 111.531 118.737ZM112.095 120.452H114.515C113.317 119.726 116.771 117.207 113.395 117.32C112.929 117.336 112.532 119.35 112.095 120.452Z" fill="white"/>
<path d="M112.093 120.452C112.526 119.35 112.927 117.336 113.393 117.32C116.77 117.207 113.315 119.725 114.513 120.452H112.093Z" fill="black"/>
</g>
<defs>
<clipPath id="clip0_389_2580">
<rect width="130" height="155" fill="white"/>
</clipPath>
</defs>
</svg>
