<svg width="25" height="24" viewBox="0 0 25 24" fill="none" xmlns="http://www.w3.org/2000/svg">
<path d="M11.5619 0.496771C11.9476 -0.165496 12.9044 -0.165495 13.2901 0.496772L16.7302 6.40297C16.8715 6.64557 17.1083 6.8176 17.3827 6.87702L24.0628 8.32358C24.8119 8.48578 25.1075 9.39571 24.5969 9.96722L20.0428 15.064C19.8557 15.2734 19.7653 15.5517 19.7936 15.831L20.4821 22.6313C20.5593 23.3938 19.7852 23.9561 19.0839 23.6471L12.8293 20.8909C12.5724 20.7777 12.2797 20.7777 12.0228 20.8909L5.76814 23.6471C5.06681 23.9561 4.29278 23.3938 4.36998 22.6313L5.0585 15.831C5.08678 15.5517 4.99634 15.2734 4.80928 15.064L0.255185 9.96722C-0.25547 9.39571 0.0401831 8.48578 0.789235 8.32358L7.46939 6.87702C7.74379 6.8176 7.98056 6.64557 8.12187 6.40297L11.5619 0.496771Z" fill="#0F4A12"/>
</svg>
