<svg width="25" height="24" viewBox="0 0 25 24" fill="none" xmlns="http://www.w3.org/2000/svg">
<path d="M11.9944 0.748535C12.1873 0.417529 12.6648 0.417528 12.8577 0.748535L16.2981 6.65479C16.51 7.01857 16.8652 7.27656 17.2766 7.36572L23.9573 8.81201C24.3316 8.89324 24.4792 9.34858 24.2239 9.63428L19.6702 14.731C19.3896 15.045 19.2537 15.4624 19.2961 15.8813L19.9846 22.6812C20.0232 23.0624 19.6361 23.3444 19.2854 23.1899L13.0305 20.4331C12.6454 20.2635 12.2067 20.2635 11.8215 20.4331L5.56665 23.1899C5.21599 23.3444 4.82883 23.0624 4.86743 22.6812L5.55591 15.8813C5.59831 15.4624 5.46247 15.045 5.18188 14.731L0.628174 9.63428C0.372896 9.34858 0.52041 8.89324 0.894775 8.81201L7.57544 7.36572C7.9869 7.27656 8.34203 7.01857 8.55396 6.65479L11.9944 0.748535Z" fill="#FAFAFA" stroke="#DFDEDE"/>
</svg>
