<svg width="48" height="29" viewBox="0 0 48 29" fill="none" xmlns="http://www.w3.org/2000/svg">
<path fill-rule="evenodd" clip-rule="evenodd" d="M34.2188 0.282715C38.3804 1.24841 39.9723 3.68188 41.9681 7.03125H34.2188V0.282715ZM9.89795 7.3125C10.7128 7.3125 11.3042 7.70581 11.3042 8.625C11.3042 9.40027 10.6769 10.0291 9.90198 10.0312H1.40625C0.629517 10.0312 0 10.6611 0 11.4375C0 12.2142 0.629517 12.8438 1.40625 12.8438H14.0625C14.8466 12.8438 15.4742 13.4729 15.4742 14.25C15.4742 15.0267 14.8447 15.6562 14.068 15.6562H1.40625C0.629517 15.6562 0 16.2858 0 17.0625C0 17.8392 0.629517 18.4688 1.40625 18.4688H4.5V22.6875C4.5 23.4642 5.12952 24.0938 5.90625 24.0938H8.73303C9.23694 26.5759 11.4302 28.4062 14.0156 28.4062C16.6011 28.4062 18.7943 26.5759 19.2982 24.0938H33.5768C34.0807 26.5759 36.2739 28.4062 38.8594 28.4062C41.4448 28.4062 43.6381 26.5759 44.142 24.0938H46.5938C47.3705 24.0938 48 23.4642 48 22.6875V14.25C48 10.1239 43.6479 9.84998 43.6439 9.84375H32.8125C32.0358 9.84375 31.4062 9.21423 31.4062 8.4375V0H5.90625C5.12952 0 4.5 0.629517 4.5 1.40625V4.5H2.8125C2.03577 4.5 1.40625 5.12952 1.40625 5.90625C1.40625 6.68298 2.03577 7.3125 2.8125 7.3125H9.89795ZM40.6824 21.1926C41.6891 22.1993 41.6891 23.8323 40.6824 24.839C39.063 26.4584 36.2812 25.3063 36.2812 23.0156C36.2812 20.7253 39.063 19.5732 40.6824 21.1926ZM15.8386 21.1926C16.8453 22.1993 16.8453 23.8323 15.8386 24.839C14.2192 26.4584 11.4375 25.3063 11.4375 23.0156C11.4375 20.7253 14.2192 19.5732 15.8386 21.1926Z" fill="white"/>
</svg>
