<svg width="18" height="16" viewBox="0 0 18 16" fill="none" xmlns="http://www.w3.org/2000/svg">
<path d="M1.3261 11.4517C0.950371 11.4517 0.635202 11.3372 0.380591 11.1083C0.126864 10.8802 0 10.5973 0 10.2595V5.49106C0 5.1533 0.126864 4.86997 0.380591 4.64108C0.635202 4.41299 0.950371 4.29895 1.3261 4.29895H5.3044L9.68053 0.364955C10.1005 -0.0125495 10.5809 -0.0971897 11.122 0.111034C11.6639 0.320052 11.9349 0.692788 11.9349 1.22924V14.5214C11.9349 15.0578 11.6639 15.4302 11.122 15.6384C10.5809 15.8474 10.1005 15.7631 9.68053 15.3856L5.3044 11.4517H1.3261ZM14.5871 12.6438V3.04722C15.5817 3.46446 16.3826 4.11019 16.99 4.98441C17.5982 5.85863 17.9023 6.82226 17.9023 7.8753C17.9023 8.92834 17.5982 9.88203 16.99 10.7364C16.3826 11.5907 15.5817 12.2265 14.5871 12.6438Z" fill="#0F4A12"/>
</svg>
